<!DOCTYPE svg PUBLIC "-//W3C//DTD SVG 1.1//EN" "http://www.w3.org/Graphics/SVG/1.1/DTD/svg11.dtd">
<!-- Uploaded to: SVG Repo, www.svgrepo.com, Transformed by: SVG Repo Mixer Tools -->
<svg fill="#0000" version="1.1" id="Capa_1" xmlns="http://www.w3.org/2000/svg" xmlns:xlink="http://www.w3.org/1999/xlink" width="800px" height="800px" viewBox="0 0 490.36 490.36" xml:space="preserve" stroke="#0000">
<g id="SVGRepo_bgCarrier" stroke-width="0"/>
<g id="SVGRepo_tracerCarrier" stroke-linecap="round" stroke-linejoin="round"/>
<g id="SVGRepo_iconCarrier"> <g> <g> <path d="M125.806,194.584v-34.456c-0.087-7.793,1.291-15.563,2.958-23.18c1.642-7.828,1.642-15.958-0.811-19.069 c-2.834-3.516-7.353-5.506-11.938-5.044c-5.208,0.524-9.75,4.111-11.463,9.057c-3.695,9.538-6.723,19.433-8.123,29.588 c0.108-0.822,0.183-1.403-0.045,0.293c-0.211,1.627-0.149,1.171-0.048,0.411c-0.097,0.764-0.189,1.528-0.267,2.293 c-1.116,11.1,0.376,23.166,8.403,31.566c2.311,2.417,5.037,4.333,8.019,5.823C116.563,193.901,121.31,194.493,125.806,194.584z"/> <path d="M393.864,151.019c-1.429-9.993-4.417-19.736-8.062-29.128c-1.834-5.295-6.902-8.993-12.506-9.121 c-5.829-0.133-11.165,3.622-13.086,9.095c-0.067,0.301-0.157,0.668-0.253,1.076V9.292c0-5.124-4.168-9.292-9.292-9.292H139.698 c-5.124,0-9.292,4.168-9.292,9.292V278.18c0,5.123,4.168,9.293,9.292,9.293h210.966c5.124,0,9.292-4.17,9.292-9.293V130.693 c0.136,0.349,0.291,0.694,0.483,1.029c0.378,1.472,0.644,2.991,0.969,4.465c0.449,2.036,0.878,4.076,1.263,6.125 c1.097,5.86,1.942,11.843,1.876,17.816v34.456c4.69-0.095,9.63-0.744,13.819-2.991c3.917-2.099,7.312-4.846,9.951-8.465 C395.024,173.935,395.417,161.876,393.864,151.019z M344.465,154.529c-4.171-1.887-21.019-9.995-26.405-12.92 c-16.454-8.937-37.174-7.921-51.73,3.93c-9.522,6.844-17.943,15.457-25.104,24.715c5.248,6.15,9.979,12.765,14.106,19.716 c7.484,12.609,13.009,26.156,16.804,40.304c3.275,12.213,4.936,24.818,5.483,37.439h36.413c-1.247-7.279,1.043-14.839,6.12-20.197 c4.95-5.226,12.123-7.922,19.289-7.27v-52.721c1.757,0.744,3.459,1.439,5.024,2.045v56.074c-0.319-0.029-0.639-0.059-0.958-0.087 c-3.434-0.314-6.828-0.775-10.238,0.02c-4.208,0.979-8.002,3.44-10.641,6.86c-2.745,3.557-4.145,8.056-3.886,12.543 c0.149,2.568,0.762,5.145,1.194,7.677h-150.22c0.315-1.845,0.631-3.688,0.947-5.532c0.676-3.951,0.082-8.062-1.722-11.646 c-3.457-6.865-10.93-11.012-18.583-10.307l-5.171,0.473v-41.943c1.42-0.592,2.889-1.221,4.359-1.864l-0.141,38.396 c7.158-0.602,14.324,2.135,19.325,7.281c5.183,5.334,7.578,12.854,6.322,20.197h60.324c0.267-11.508,0.45-21.596,0.572-30.299 c4.13,9.654,6.989,19.93,8.625,30.299h27.53c-0.907-17.359-3.984-34.91-10.558-51.077c-4.668-11.48-10.375-22.429-17.729-32.438 c-6.623-9.017-14.317-17.504-23.272-24.265c-13.763-11.468-33.205-12.281-49.254-4.073c-3.599,1.84-7.081,3.895-10.703,5.696 c-5.019,2.495-10.158,4.761-15.402,6.739V42.784c0.18,0.008,0.36,0.017,0.54,0.024c3.188,0.142,6.388,0.462,9.531-0.27 c4.208-0.981,8.002-3.441,10.641-6.859c2.744-3.557,4.144-8.054,3.885-12.54c-0.148-2.57-0.757-5.147-1.189-7.681h150.212 c-0.085,0.497-0.17,0.994-0.254,1.492c-0.597,3.494-1.31,6.922-0.69,10.48c0.742,4.27,2.995,8.206,6.276,11.033 c3.326,2.866,7.611,4.498,12.003,4.562c2.769,0.04,5.588-0.562,8.323-0.945V154.529L344.465,154.529z"/> <path d="M269.22,292.818h-19.868C254.414,299.038,264.158,299.04,269.22,292.818z"/> <path d="M288.872,42.589c-8.479,0-16.877,2.379-24.079,6.855c-15.11,9.393-23.508,27.147-21.203,44.788 c2.273,17.398,14.813,32.32,31.544,37.591c17.05,5.371,36.121,0.056,47.955-13.325c11.847-13.396,14.767-33.069,7.282-49.323 C322.983,53.133,306.533,42.589,288.872,42.589z"/> <path d="M219.659,67.593c-15.704-8.66-35.711-6.49-49.212,5.294c-13.489,11.775-18.368,31.231-11.965,47.972 c6.328,16.546,22.64,27.767,40.349,27.767c3.242,0,6.484-0.36,9.646-1.081c17.17-3.917,30.577-18.439,33.099-35.871 C244.129,94.021,235.281,76.207,219.659,67.593z"/> <path d="M351.282,329.422c-1.129-12.207-2.468-24.455-4.713-36.513c-0.001-0.03-0.001-0.062-0.001-0.091h-71.137 c-3.472,7.059-10.793,11.564-18.648,11.523c0,0-3.316,0.162-6.191-0.883c0.061,0.274,0.119,0.549,0.178,0.822l16.361,93.918 c0.708,3.662-0.055,7.373-2.083,10.4c-0.873,24.291-0.861,24.172-1.874,35.943c-0.77,8.943-1.806,17.846-2.835,26.762 l-0.062,0.539c-1,8.68,5.161,16.875,13.788,18.301c8.641,1.428,17.135-4.385,18.984-12.936c1.687-7.91,3.479-15.805,4.909-23.766 c0.927-5.162,1.975-10.311,2.766-15.494c0.813-5.32,1.609-10.645,2.417-15.965c1.57-12.596,3.06-25.186,3.979-37.848 c0.904-12.488,1.538-25.006,1.57-37.531c2.843,19.025,3.847,38.384,3.689,57.604c-0.051,6.225-0.312,12.404-0.656,18.621 c-0.34,6.154-0.943,12.252-1.59,18.383c-0.95,8.99-2.489,17.883-3.925,26.807c-1.382,8.619,4.407,17.068,12.954,18.873 c8.629,1.82,17.419-3.707,19.562-12.254c1.08-4.357,2.159-8.715,3.232-13.072c1.659-6.736,2.984-13.502,4.276-20.318 c4.653-24.545,6.455-49.52,6.607-74.477C352.915,354.335,352.428,341.809,351.282,329.422z"/> <path d="M261.517,397.645l-20.926-104.826H132.174L110.892,397.67c-0.517,2.641,0.166,5.346,1.874,7.42 c1.708,2.076,4.231,3.268,6.92,3.268h26.172c1.123,11.168,2.801,23.744,4.903,34.773c0.558,2.93,1.049,5.885,1.697,8.795 c0.629,2.826,1.385,5.629,2.077,8.438c0.86,3.494,1.726,6.984,2.591,10.477c2.004,8.096,10.304,13.312,18.47,11.594 c8.065-1.697,13.575-9.637,12.293-17.789c-0.505-3.139-1.005-6.277-1.511-9.414c-0.898-5.564-1.695-11.1-2.288-16.707 c-0.628-5.936-1.161-11.84-1.492-17.801c-0.201-3.627-0.333-8.744-0.43-12.365h7.222c1.474,11.697,3.09,24.863,5.2,36.467 c1.731,9.523,3.712,18.98,5.73,28.447c1.717,8.064,9.68,13.549,17.829,12.254c8.181-1.299,14.096-9.016,13.174-17.26 c-0.002-0.02-0.005-0.039-0.007-0.059c-2.299-19.363-4.228-40.338-4.686-59.85h26.097c2.684,0,5.202-1.188,6.912-3.256 C261.349,403.029,262.036,400.332,261.517,397.645z"/> </g> </g> </g>
</svg>